<?xml version="1.0" encoding="UTF-8"?>
<svg id="Layer_1" xmlns="http://www.w3.org/2000/svg" width="100" height="24" viewBox="0 0 100 24">
  <defs>
    <style>
      .cls-1 {
        fill: #fff;
      }

      .cls-2 {
        fill: #556ee6;
      }
    </style>
  </defs>
  <path class="cls-1" d="M12.03,5.19c-.12-.12-.33-.28-.65-.48-.31-.2-.69-.4-1.14-.59-.45-.19-.93-.36-1.46-.49-.52-.13-1.06-.2-1.6-.2-.96,0-1.68.18-2.15.53-.47.35-.71.85-.71,1.49,0,.37.09.68.27.92.18.24.43.46.77.64.34.18.76.35,1.28.5.51.15,1.11.31,1.79.48.88.24,1.68.49,2.39.76.72.27,1.33.6,1.82,1.01.5.4.88.89,1.15,1.45.27.56.41,1.26.41,2.08,0,.96-.18,1.78-.54,2.46-.36.68-.85,1.23-1.47,1.65-.62.42-1.33.73-2.13.92-.8.19-1.64.29-2.52.29-1.35,0-2.69-.2-4-.6-1.32-.4-2.5-.97-3.55-1.71l1.55-3c.15.15.43.35.82.59.4.24.87.49,1.41.73.54.24,1.14.45,1.8.62.66.17,1.33.25,2.03.25,1.93,0,2.89-.61,2.89-1.84,0-.39-.11-.71-.33-.98-.22-.27-.53-.5-.94-.71-.41-.2-.9-.39-1.47-.55-.57-.17-1.22-.35-1.93-.55-.86-.23-1.61-.49-2.24-.77-.63-.28-1.16-.6-1.58-.98-.42-.38-.74-.81-.95-1.31-.21-.5-.32-1.09-.32-1.78,0-.91.17-1.71.51-2.42.34-.71.81-1.29,1.41-1.76.6-.47,1.3-.83,2.09-1.07.79-.24,1.65-.37,2.56-.37,1.27,0,2.43.2,3.5.59,1.06.39,1.99.86,2.79,1.4l-1.55,2.82Z"/>
  <path class="cls-1" d="M16.52,3.35V0h3.4v3.35h-3.4ZM16.52,18.38V5.19h3.4v13.2h-3.4Z"/>
  <path class="cls-1" d="M28.17,18.46c-.9,0-1.71-.18-2.43-.53-.73-.35-1.36-.84-1.89-1.45-.53-.61-.94-1.32-1.23-2.13-.29-.81-.43-1.66-.43-2.57,0-.96.15-1.85.46-2.67.3-.82.73-1.54,1.27-2.17.54-.62,1.19-1.11,1.95-1.46s1.6-.53,2.51-.53c1.03,0,1.93.23,2.71.69.78.46,1.42,1.08,1.93,1.85v-2.32h2.96v12.57c0,.97-.19,1.85-.56,2.62-.37.77-.88,1.43-1.53,1.96-.65.54-1.43.95-2.33,1.23-.9.29-1.89.43-2.95.43-1.45,0-2.67-.24-3.66-.72-.99-.48-1.84-1.15-2.55-2.03l1.85-1.79c.51.62,1.14,1.11,1.91,1.46.77.35,1.58.53,2.44.53.52,0,1.03-.07,1.51-.21.48-.14.91-.37,1.28-.67.37-.3.66-.69.87-1.16.21-.47.32-1.02.32-1.66v-1.66c-.44.76-1.06,1.34-1.85,1.75-.79.41-1.65.62-2.56.62ZM29.31,15.76c.37,0,.73-.06,1.06-.18.34-.12.65-.28.94-.48.29-.2.54-.44.76-.71.22-.27.39-.55.51-.86v-3.15c-.3-.77-.78-1.39-1.43-1.86-.65-.47-1.33-.71-2.04-.71-.52,0-1,.11-1.42.34-.42.23-.79.53-1.09.91-.3.38-.54.81-.7,1.3-.16.49-.24.99-.24,1.51s.09,1.04.28,1.51c.19.47.44.88.77,1.23s.71.63,1.15.83c.44.2.92.3,1.44.3Z"/>
  <path class="cls-1" d="M59.67,18.38h-3.4v-7.4c0-1.06-.18-1.83-.54-2.32-.36-.49-.87-.73-1.51-.73-.68,0-1.31.26-1.9.77-.59.51-1.01,1.18-1.27,2v7.68h-3.4v-7.4c0-1.06-.18-1.83-.54-2.32-.36-.49-.87-.73-1.51-.73s-1.29.25-1.89.76c-.6.5-1.03,1.17-1.28,1.99v7.71h-3.4V5.19h3.07v2.44c.49-.86,1.16-1.51,2.01-1.98.85-.46,1.83-.69,2.93-.69s1.98.27,2.58.81c.61.54,1,1.2,1.17,1.99.54-.91,1.22-1.6,2.05-2.08.83-.48,1.77-.72,2.84-.72.81,0,1.48.15,2,.45.52.3.93.7,1.22,1.18.29.49.49,1.04.6,1.66.11.62.16,1.25.16,1.89v8.23Z"/>
  <path class="cls-1" d="M66.25,18.64c-.64,0-1.24-.11-1.8-.31-.56-.21-1.04-.5-1.44-.88-.41-.38-.72-.82-.95-1.32-.23-.5-.34-1.06-.34-1.66s.14-1.2.42-1.73c.28-.53.67-.98,1.17-1.35.5-.37,1.09-.66,1.79-.87.69-.21,1.45-.31,2.28-.31.59,0,1.17.05,1.74.15.57.1,1.07.24,1.51.43v-.76c0-.87-.25-1.54-.75-2.01-.5-.47-1.24-.71-2.22-.71-.71,0-1.4.13-2.08.38-.68.25-1.37.62-2.08,1.11l-1.04-2.14c1.71-1.12,3.55-1.69,5.52-1.69s3.39.47,4.45,1.4c1.06.93,1.58,2.28,1.58,4.04v4.1c0,.35.06.6.19.76.13.15.33.24.62.25v2.87c-.57.12-1.07.18-1.49.18-.64,0-1.14-.14-1.48-.43-.35-.29-.56-.66-.65-1.13l-.08-.73c-.59.77-1.31,1.36-2.15,1.76-.84.4-1.75.6-2.71.6ZM67.22,16.17c.57,0,1.12-.1,1.63-.3.51-.2.92-.47,1.2-.81.37-.29.56-.6.56-.96v-1.51c-.41-.15-.84-.27-1.32-.37-.47-.09-.93-.14-1.37-.14-.88,0-1.6.2-2.15.59-.56.39-.84.89-.84,1.5,0,.57.22,1.05.66,1.42.44.38.98.57,1.62.57Z"/>
  <path class="cls-2" d="M85.1,15.44c.83,0,1.52-.17,2.09-.5.57-.34,1.02-.77,1.37-1.31.35-.54.59-1.15.73-1.85.14-.7.22-1.41.22-2.15V.5h3.47v9.12c0,1.23-.15,2.38-.44,3.45-.3,1.07-.76,2.01-1.39,2.82-.63.81-1.45,1.44-2.44,1.91-1,.47-2.19.71-3.57.71s-2.66-.25-3.66-.74c-1.01-.5-1.82-1.15-2.44-1.96-.63-.81-1.08-1.76-1.36-2.83-.28-1.07-.42-2.19-.42-3.35V.5h3.5v9.12c0,.76.07,1.48.22,2.18.14.7.39,1.31.73,1.85.35.54.8.97,1.36,1.3.56.33,1.24.49,2.05.49Z"/>
  <path class="cls-2" d="M96.5,18.38V.5h3.5v17.88h-3.5Z"/>
</svg>